<?xml version="1.0"?>
<svg width="1050" height="1050" xmlns="http://www.w3.org/2000/svg" xmlns:svg="http://www.w3.org/2000/svg" preserveAspectRatio="xMidYMid meet">
 <g class="layer">
  <title>Layer 1</title>
  <g fill="#000000" id="svg_1" transform="rotate(45 591.987 456) translate(0 1280) scale(0.1 -0.1)">
   <path d="m5889,14593c-29,-42 -183,-239 -199,-253c-6,-6 -65,-78 -168,-206c-290,-362 -403,-630 -461,-1089c-60,-470 -71,-1030 -71,-3436c0,-1806 -5,-2228 -29,-2292c-8,-21 -21,2011 -21,3238l0,690l-71,195c-39,107 -93,256 -119,330c-56,158 -110,305 -150,410c-16,41 -35,97 -41,123c-12,50 -51,107 -73,107c-28,0 -48,-30 -80,-120c-19,-52 -50,-138 -69,-190c-19,-52 -56,-153 -82,-225c-26,-71 -87,-241 -136,-376l-89,-246l0,-2815l0,-2815l-132,-124c-477,-446 -573,-601 -617,-1001c-11,-94 -15,-398 -6,-398c2,0 96,-19 207,-41c112,-23 214,-43 228,-46c82,-15 232,-45 273,-54l47,-11l0,-477l0,-476l-26,-70c-105,-286 -154,-429 -154,-453c0,-45 16,-52 116,-52c118,0 120,-2 104,-112c-27,-199 -39,-299 -42,-380l-4,-88l463,0l464,0l-6,42c-3,24 -10,93 -15,153c-5,61 -15,146 -22,190c-6,44 -12,105 -12,135l-1,55l99,3c55,1 106,8 113,14c27,22 17,58 -87,338c-34,91 -66,181 -72,200c-7,23 -9,162 -5,409c7,480 15,495 82,164c41,-199 51,-229 98,-287c62,-77 67,-90 67,-171l0,-75l48,0c107,-1 184,-23 288,-83l100,-57l308,0l308,0l100,57c101,57 182,82 271,83l37,0l0,59c0,57 2,62 63,142c34,45 68,90 75,100c8,10 20,51 28,91c67,343 74,371 85,342c4,-11 8,-188 8,-394l1,-375l-26,-70c-101,-276 -146,-402 -151,-428c-9,-46 14,-57 123,-57c115,0 121,-5 106,-92c-6,-35 -14,-80 -17,-101c-11,-66 -35,-311 -35,-349l0,-38l460,0l460,0l0,52c0,75 -23,272 -51,436c-16,87 -10,92 105,92c63,0 98,4 111,14c28,20 24,33 -126,436l-39,106l0,487l0,486l38,10c30,8 318,67 552,112c25,5 65,13 90,19c25,5 48,9 53,10c12,0 7,289 -8,420c-21,185 -80,384 -148,500c-33,57 -238,268 -454,470l-123,113l0,2817l0,2818l-56,153c-31,85 -87,240 -124,344c-37,105 -97,269 -132,365c-36,96 -71,197 -79,224c-24,82 -94,111 -117,48c-5,-15 -17,-49 -26,-77c-10,-27 -60,-165 -111,-305c-51,-140 -134,-368 -184,-506l-91,-251l-1,-1824c-1,-1003 -4,-1903 -8,-1999l-6,-175l-8,330c-4,182 -9,1250 -12,2375c-5,1925 -11,2394 -35,2755c-43,637 -129,937 -363,1265c-54,75 -251,327 -267,340c-13,11 -212,263 -236,300c-15,22 -33,40 -40,40c-7,0 -28,-21 -45,-47z" fill="#56a6ff" id="svg_2"/>
  </g>
 </g>
</svg>