<svg viewBox="0 0 111 32" xmlns="http://www.w3.org/2000/svg"><path d="M69.792 0h-5.43l-7.755 7.754v23.264h7.755V7.754h5.43a3.877 3.877 0 110 7.754h-3.1L82.2 31.018v-9.306L79.087 18.6A11.624 11.624 0 0069.792 0zM9.3 31.018V7.754H0L7.755 0h20.938l-7.756 7.754H17.06v23.264H9.3zm18.613-7.754a7.754 7.754 0 007.754 7.754h10.086a7.755 7.755 0 007.754-7.754V7.754A7.783 7.783 0 0045.753 0H35.671a7.755 7.755 0 00-7.754 7.754v15.51h-.004zm15.509 0H38a2.327 2.327 0 01-2.326-2.326V10.081A2.328 2.328 0 0138 7.754h5.428a2.328 2.328 0 012.328 2.327v10.857a2.381 2.381 0 01-2.326 2.326h-.008zm56.607 7.754h3.1v-7.754h-3.1a7.755 7.755 0 010-15.51h3.1L110.891 0h-10.857c-8.565 0-15.509 6.944-15.509 15.509 0 8.565 6.944 15.509 15.509 15.509h-.005z" fill="#FFF"/></svg>